# xmcd
#
# Track frame offsets:
#	150
#	9670
#	18686
#	31353
#	43344
#	54660
#	76448
#	89802
#	106431
#	116174
#	126149
#	137897
#	149529
#	161693
#	172912
#	186291
#	201319
#	211506
#	223875
#	234090
#	248813
#	261257
#
# Disc length: 3663 seconds
#
# Revision: 0
# Processed by: cddbd v1.5.2PL0 Copyright (c) Steve Scherf et al.
# Submitted via: EasyCDDAExtractor 16.0.6.1
#
DISCID=4d0e4d16
DTITLE=Various Artist - Country Sunrise [Disc 05]
DYEAR=2006
DGENRE=Country
TTITLE0=Rusty and Doug Kershaw - Diggy Liggy Lo
TTITLE1=The Everly Brothers - Wake Up Little Susie
TTITLE2=Jim Reeves - Bimbo
TTITLE3=Kitty Wells - It Wasn't God Who Made Honky Tonk Angels
TTITLE4=Johnny Rodriguez - I Just Can't Get Her Out Of My Mind
TTITLE5=Exile - Kiss You All Over
TTITLE6=Lynn Anderson - Keep Me In Mind
TTITLE7=Eddy Raven - Joe Knows How To Live
TTITLE8=Jeannie C. Riley - The Girl Most Likely
TTITLE9=Ray Stevens - Turn Your Radio On
TTITLE10=Tennessee Ernie Ford - The Shotgun Boogie
TTITLE11=Eddy Arnold - Bouquet Of Roses
TTITLE12=Hank Williams - Your Cheatin' Heart
TTITLE13=Hank Locklin - Let Me Be The One
TTITLE14=Mickey Gilley - Room Full Of Roses
TTITLE15=Ed Bruce - You're The Best Break This Heart Ever Had
TTITLE16=Don Gibson - Sea Of Heartbreak
TTITLE17=Patsy Cline - A Poor Mans Roses Or A Rich Mans Gold
TTITLE18=Johnny Cash - The Ways Of A Woman In Love
TTITLE19=Eddie Rabbitt - Drivin' My Life Away
TTITLE20=Merle Haggard - If We Make It Through December
TTITLE21=Various Artist - Mr Walker It's All Over
EXTD=
EXTT0=
EXTT1=
EXTT2=
EXTT3=
EXTT4=
EXTT5=
EXTT6=
EXTT7=
EXTT8=
EXTT9=
EXTT10=
EXTT11=
EXTT12=
EXTT13=
EXTT14=
EXTT15=
EXTT16=
EXTT17=
EXTT18=
EXTT19=
EXTT20=
EXTT21=
PLAYORDER=
